<svg xmlns="http://www.w3.org/2000/svg" xmlns:xlink="http://www.w3.org/1999/xlink" width="500" zoomAndPan="magnify" viewBox="0 0 375 374.999991" height="500" preserveAspectRatio="xMidYMid meet" version="1.0"><defs><clipPath id="32c1116099"><path d="M 54.8125 44.441406 L 320.3125 44.441406 L 320.3125 330.191406 L 54.8125 330.191406 Z M 54.8125 44.441406 " clip-rule="nonzero"/></clipPath></defs><rect x="-37.5" width="450" fill="#ffffff" y="-37.499999" height="449.999989" fill-opacity="1"/><rect x="-37.5" width="450" fill="#0a0c06" y="-37.499999" height="449.999989" fill-opacity="1"/><g clip-path="url(#32c1116099)"><path fill="#efecec" d="M 246.511719 330.5625 L 320.085938 330.5625 L 250.183594 228.378906 C 262.378906 223.882812 273.078125 217.683594 282.277344 209.640625 C 291.40625 201.671875 298.558594 191.863281 303.667969 180.210938 C 308.84375 168.566406 311.433594 155.074219 311.5 139.675781 L 311.5 138.863281 C 311.5 125.300781 309.386719 113.039062 305.230469 102.003906 C 301.082031 90.96875 294.945312 81.5 286.976562 73.460938 C 277.574219 63.992188 265.867188 56.808594 251.890625 51.867188 C 237.941406 46.929688 221.777344 44.441406 203.59375 44.441406 L 54.914062 44.441406 L 92.953125 101.253906 L 198.28125 101.253906 C 208.566406 101.253906 217.355469 102.824219 224.710938 105.886719 C 232.070312 108.957031 237.789062 113.449219 241.742188 119.515625 C 245.695312 125.578125 247.664062 133.140625 247.734375 142.132812 L 247.734375 142.949219 C 247.734375 151.054688 245.832031 158.140625 242.015625 164.136719 C 238.261719 170.199219 232.816406 174.898438 225.664062 178.304688 C 218.441406 181.644531 209.71875 183.347656 199.503906 183.414062 L 147.972656 183.414062 Z M 246.511719 330.5625 " fill-opacity="1" fill-rule="nonzero"/></g></svg>