<svg xmlns="http://www.w3.org/2000/svg" xmlns:xlink="http://www.w3.org/1999/xlink" width="500" zoomAndPan="magnify" viewBox="0 0 375 374.999991" height="500" preserveAspectRatio="xMidYMid meet" version="1.0"><defs><clipPath id="20ad9567fc"><path d="M 54.8125 44.441406 L 320.3125 44.441406 L 320.3125 330.191406 L 54.8125 330.191406 Z M 54.8125 44.441406 " clip-rule="nonzero"/></clipPath></defs><rect x="-37.5" width="450" fill="#ffffff" y="-37.499999" height="449.999989" fill-opacity="1"/><rect x="-37.5" width="450" fill="#efecec" y="-37.499999" height="449.999989" fill-opacity="1"/><g clip-path="url(#20ad9567fc)"><path fill="#0a0c06" d="M 246.605469 330.199219 L 320.214844 330.199219 L 250.28125 228.144531 C 262.480469 223.652344 273.183594 217.460938 282.386719 209.433594 C 291.523438 201.472656 298.679688 191.675781 303.789062 180.039062 C 308.96875 168.40625 311.558594 154.933594 311.625 139.554688 L 311.625 138.742188 C 311.625 125.199219 309.511719 112.953125 305.351562 101.933594 C 301.199219 90.910156 295.0625 81.453125 287.089844 73.425781 C 277.683594 63.964844 265.96875 56.792969 251.988281 51.855469 C 238.03125 46.929688 221.859375 44.441406 203.664062 44.441406 L 54.914062 44.441406 L 92.96875 101.183594 L 198.351562 101.183594 C 208.640625 101.183594 217.433594 102.75 224.792969 105.808594 C 232.15625 108.875 237.878906 113.359375 241.832031 119.421875 C 245.789062 125.476562 247.757812 133.027344 247.828125 142.007812 L 247.828125 142.824219 C 247.828125 150.921875 245.925781 157.996094 242.105469 163.984375 C 238.351562 170.039062 232.902344 174.734375 225.746094 178.136719 C 218.519531 181.472656 209.792969 183.171875 199.574219 183.238281 L 148.015625 183.238281 Z M 246.605469 330.199219 " fill-opacity="1" fill-rule="nonzero"/></g></svg>