<svg xmlns="http://www.w3.org/2000/svg" xmlns:xlink="http://www.w3.org/1999/xlink" width="500" zoomAndPan="magnify" viewBox="0 0 375 187.499995" height="250" preserveAspectRatio="xMidYMid meet" version="1.0"><defs><g/><clipPath id="ae23eb359d"><path d="M 4.183594 54.921875 L 53.554688 54.921875 L 53.554688 108.78125 L 4.183594 108.78125 Z M 4.183594 54.921875 " clip-rule="nonzero"/></clipPath></defs><g clip-path="url(#ae23eb359d)"><path fill="#efecec" d="M 40.035156 108.429688 L 53.792969 108.429688 L 40.722656 89.320312 C 43 88.480469 45.003906 87.320312 46.722656 85.816406 C 48.429688 84.328125 49.765625 82.492188 50.722656 80.3125 C 51.691406 78.136719 52.175781 75.613281 52.1875 72.734375 L 52.1875 72.582031 C 52.1875 70.042969 51.792969 67.75 51.015625 65.6875 C 50.238281 63.625 49.089844 61.855469 47.601562 60.351562 C 45.84375 58.578125 43.652344 57.234375 41.039062 56.3125 C 38.429688 55.390625 35.40625 54.921875 32.007812 54.921875 L 4.203125 54.921875 L 11.316406 65.546875 L 31.015625 65.546875 C 32.9375 65.546875 34.582031 65.839844 35.957031 66.414062 C 37.332031 66.988281 38.402344 67.828125 39.140625 68.960938 C 39.882812 70.097656 40.25 71.511719 40.261719 73.191406 L 40.261719 73.34375 C 40.261719 74.859375 39.90625 76.1875 39.191406 77.308594 C 38.492188 78.441406 37.472656 79.320312 36.136719 79.957031 C 34.785156 80.582031 33.152344 80.898438 31.242188 80.914062 L 21.605469 80.914062 Z M 40.035156 108.429688 " fill-opacity="1" fill-rule="nonzero"/></g><g fill="#efecec" fill-opacity="1"><g transform="translate(65.583043, 112.495292)"><g><path d="M 35.375 -15.3125 C 35.863281 -15.582031 36.414062 -15.71875 37.03125 -15.71875 C 37.101562 -15.375 36.96875 -15.046875 36.625 -14.734375 C 36.28125 -14.429688 35.96875 -14.140625 35.6875 -13.859375 L 35.078125 -13.34375 C 32.585938 -11.476562 30.066406 -9.664062 27.515625 -7.90625 C 24.960938 -6.15625 22.21875 -4.707031 19.28125 -3.5625 C 16.351562 -2.425781 13.097656 -1.859375 9.515625 -1.859375 L 9.109375 -1.859375 C 5.585938 -1.859375 2.863281 -2.925781 0.9375 -5.0625 C -0.789062 -7.0625 -1.378906 -9.476562 -0.828125 -12.3125 C 1.097656 -21.757812 7.238281 -27.863281 17.59375 -30.625 C 18.144531 -30.757812 18.695312 -30.828125 19.25 -30.828125 C 20.894531 -30.828125 22.238281 -30.101562 23.28125 -28.65625 C 24.101562 -27.550781 24.359375 -26.601562 24.046875 -25.8125 C 23.742188 -25.019531 23.28125 -24.207031 22.65625 -23.375 C 19.894531 -20 15.34375 -17.828125 9 -16.859375 C 6.726562 -16.515625 5.242188 -15.617188 4.546875 -14.171875 C 3.859375 -12.722656 3.34375 -11.171875 3 -9.515625 L 2.890625 -8.796875 C 2.691406 -7.828125 2.863281 -6.929688 3.40625 -6.109375 C 4.164062 -5.066406 5.375 -4.304688 7.03125 -3.828125 C 8.269531 -3.484375 9.582031 -3.3125 10.96875 -3.3125 C 12.070312 -3.3125 13.140625 -3.414062 14.171875 -3.625 C 15.203125 -3.832031 16.304688 -4.109375 17.484375 -4.453125 C 21.140625 -5.484375 24.796875 -7.238281 28.453125 -9.71875 C 30.035156 -10.757812 31.617188 -12.003906 33.203125 -13.453125 C 33.347656 -13.515625 33.488281 -13.613281 33.625 -13.75 C 33.757812 -13.894531 33.894531 -14.035156 34.03125 -14.171875 C 34.238281 -14.378906 34.445312 -14.566406 34.65625 -14.734375 C 34.863281 -14.910156 35.101562 -15.101562 35.375 -15.3125 Z M 10.234375 -20.59375 L 9.515625 -19.765625 L 10.65625 -20.0625 C 13.070312 -20.613281 15.125 -21.335938 16.8125 -22.234375 C 18.5 -23.140625 19.960938 -24.59375 21.203125 -26.59375 L 21.625 -27.421875 L 20.6875 -27.109375 C 18.6875 -26.484375 16.820312 -25.703125 15.09375 -24.765625 C 13.375 -23.835938 11.753906 -22.445312 10.234375 -20.59375 Z M 10.234375 -20.59375 "/></g></g></g><g fill="#efecec" fill-opacity="1"><g transform="translate(100.86287, 112.495292)"><g><path d="M 32.890625 -17.28125 C 33.515625 -17.28125 33.96875 -17.003906 34.25 -16.453125 C 34.382812 -16.242188 34.414062 -16.070312 34.34375 -15.9375 C 34.28125 -15.789062 34.109375 -15.664062 33.828125 -15.5625 C 33.554688 -15.46875 33.28125 -15.382812 33 -15.3125 C 32.65625 -15.238281 32.414062 -15.203125 32.28125 -15.203125 C 26.757812 -13.617188 21.222656 -11.550781 15.671875 -9 C 10.117188 -6.445312 4.273438 -3.273438 -1.859375 0.515625 C -3.796875 1.691406 -5.160156 3.207031 -5.953125 5.0625 C -6.742188 6.925781 -7.414062 8.828125 -7.96875 10.765625 C -8.238281 11.660156 -8.507812 12.554688 -8.78125 13.453125 C -9.0625 14.347656 -9.410156 15.207031 -9.828125 16.03125 C -9.898438 16.164062 -9.882812 16.390625 -9.78125 16.703125 C -9.675781 17.015625 -9.554688 17.3125 -9.421875 17.59375 L -9.3125 17.890625 C -7.445312 22.035156 -6.546875 26.257812 -6.609375 30.5625 C -6.679688 34.875 -7.597656 38.804688 -9.359375 42.359375 C -11.117188 45.910156 -13.617188 48.617188 -16.859375 50.484375 C -17.203125 50.691406 -17.597656 50.898438 -18.046875 51.109375 C -18.492188 51.316406 -18.960938 51.421875 -19.453125 51.421875 C -20.140625 51.421875 -20.863281 51.109375 -21.625 50.484375 C -22.582031 49.722656 -23.023438 48.945312 -22.953125 48.15625 C -22.890625 47.363281 -22.753906 46.625 -22.546875 45.9375 C -21.515625 42.832031 -20.5 39.757812 -19.5 36.71875 C -18.5 33.6875 -17.484375 30.6875 -16.453125 27.71875 L -13.96875 20.28125 C -13.28125 18.28125 -13.347656 16.726562 -14.171875 15.625 C -15.003906 14.519531 -16.625 13.796875 -19.03125 13.453125 C -19.238281 13.453125 -19.550781 13.453125 -19.96875 13.453125 C -20.519531 13.378906 -20.984375 13.289062 -21.359375 13.1875 C -21.742188 13.082031 -22.039062 12.753906 -22.25 12.203125 C -22.382812 11.796875 -22.363281 11.488281 -22.1875 11.28125 C -22.019531 11.070312 -21.726562 10.828125 -21.3125 10.546875 C -21.03125 10.335938 -20.859375 10.203125 -20.796875 10.140625 C -20.515625 9.859375 -20.304688 9.71875 -20.171875 9.71875 C -16.378906 8.132812 -13.222656 6.015625 -10.703125 3.359375 C -8.191406 0.703125 -6.085938 -2.222656 -4.390625 -5.421875 C -2.703125 -8.628906 -1.203125 -11.890625 0.109375 -15.203125 C 6.722656 -31.828125 14.476562 -46.550781 23.375 -59.375 C 24 -60.34375 24.738281 -61.289062 25.59375 -62.21875 C 26.457031 -63.15625 27.476562 -63.9375 28.65625 -64.5625 C 29.414062 -64.96875 30.140625 -65.171875 30.828125 -65.171875 C 32.410156 -65.171875 33.648438 -64.101562 34.546875 -61.96875 C 35.171875 -60.445312 35.445312 -58.445312 35.375 -55.96875 C 35.3125 -53.488281 34.953125 -50.972656 34.296875 -48.421875 C 33.640625 -45.867188 32.773438 -43.570312 31.703125 -41.53125 C 30.640625 -39.5 29.519531 -38.140625 28.34375 -37.453125 C 27.863281 -37.171875 27.484375 -37.03125 27.203125 -37.03125 C 26.992188 -37.03125 26.820312 -37.101562 26.6875 -37.25 C 26.070312 -37.65625 25.765625 -38.097656 25.765625 -38.578125 C 25.765625 -39.066406 25.796875 -39.414062 25.859375 -39.625 C 26.410156 -41.070312 26.960938 -42.519531 27.515625 -43.96875 C 28.066406 -45.414062 28.65625 -46.828125 29.28125 -48.203125 L 29.484375 -48.828125 C 30.171875 -50.347656 30.804688 -51.914062 31.390625 -53.53125 C 31.984375 -55.15625 32.347656 -56.898438 32.484375 -58.765625 C 32.484375 -58.898438 32.519531 -59.140625 32.59375 -59.484375 C 32.65625 -59.960938 32.671875 -60.492188 32.640625 -61.078125 C 32.609375 -61.671875 32.28125 -62.207031 31.65625 -62.6875 C 31.175781 -62.96875 30.765625 -63.109375 30.421875 -63.109375 C 30.003906 -63.109375 29.675781 -63.003906 29.4375 -62.796875 C 29.195312 -62.585938 28.9375 -62.347656 28.65625 -62.078125 C 28.445312 -61.796875 28.3125 -61.617188 28.25 -61.546875 C 26.175781 -59.691406 24.394531 -57.609375 22.90625 -55.296875 C 21.425781 -52.984375 20 -50.617188 18.625 -48.203125 L 18.3125 -47.6875 C 10.789062 -34.445312 3.722656 -19.414062 -2.890625 -2.59375 L -3.203125 -1.765625 L -2.375 -2.171875 C -1.207031 -2.722656 -0.0546875 -3.289062 1.078125 -3.875 C 2.222656 -4.46875 3.347656 -5.039062 4.453125 -5.59375 C 6.859375 -6.757812 9.234375 -7.925781 11.578125 -9.09375 C 13.929688 -10.269531 16.28125 -11.410156 18.625 -12.515625 C 20.207031 -13.203125 21.828125 -13.820312 23.484375 -14.375 C 25.140625 -14.925781 26.796875 -15.476562 28.453125 -16.03125 L 31.25 -16.96875 C 31.445312 -17.03125 31.703125 -17.097656 32.015625 -17.171875 C 32.328125 -17.242188 32.617188 -17.28125 32.890625 -17.28125 Z M -17.59375 42.3125 C -14.757812 39.625 -12.773438 36.429688 -11.640625 32.734375 C -10.503906 29.046875 -10.3125 25.238281 -11.0625 21.3125 L -11.6875 21.203125 L -12.203125 22.453125 C -13.378906 25.617188 -14.484375 28.753906 -15.515625 31.859375 C -16.546875 34.960938 -17.441406 38.3125 -18.203125 41.90625 Z M -9.3125 6 L -9.109375 5.0625 L -17.484375 11.0625 L -17.0625 11.28125 C -15.96875 11.96875 -15.070312 12.5 -14.375 12.875 C -13.6875 13.257812 -13.101562 13.453125 -12.625 13.453125 C -11.789062 13.453125 -11.179688 12.878906 -10.796875 11.734375 C -10.421875 10.597656 -9.925781 8.6875 -9.3125 6 Z M -9.3125 6 "/></g></g></g><g fill="#efecec" fill-opacity="1"><g transform="translate(132.728517, 112.495292)"><g><path d="M 44.171875 -89.6875 C 45.003906 -88.9375 45.332031 -88.234375 45.15625 -87.578125 C 44.988281 -86.921875 44.59375 -86.175781 43.96875 -85.34375 C 43.132812 -84.382812 42.351562 -83.351562 41.625 -82.25 C 40.90625 -81.144531 40.171875 -80.070312 39.421875 -79.03125 C 39.347656 -78.96875 39.289062 -78.898438 39.25 -78.828125 C 39.21875 -78.765625 39.171875 -78.695312 39.109375 -78.625 C 35.378906 -73.25 31.828125 -67.832031 28.453125 -62.375 C 20.859375 -50.03125 14.023438 -37.097656 7.953125 -23.578125 C 1.890625 -10.066406 -2.96875 3.894531 -6.625 18.3125 C -9.101562 28.238281 -10.238281 37.304688 -10.03125 45.515625 C -10.03125 45.859375 -10.066406 46.203125 -10.140625 46.546875 C -10.140625 47.304688 -10.101562 48.03125 -10.03125 48.71875 C -9.96875 49.414062 -9.660156 50.039062 -9.109375 50.59375 C -8.410156 51.414062 -7.238281 51.929688 -5.59375 52.140625 C -5.3125 52.140625 -5.066406 52.273438 -4.859375 52.546875 C -4.515625 52.828125 -4.304688 53.242188 -4.234375 53.796875 C -4.171875 54.421875 -4.289062 54.832031 -4.59375 55.03125 C -4.90625 55.238281 -5.269531 55.34375 -5.6875 55.34375 L -5.796875 55.34375 C -9.585938 55.34375 -12.035156 53.550781 -13.140625 49.96875 C -13.691406 48.039062 -13.945312 46.175781 -13.90625 44.375 C -13.875 42.582031 -13.753906 40.828125 -13.546875 39.109375 L -13.453125 38.078125 C -12.554688 27.722656 -10.675781 17.703125 -7.8125 8.015625 C -4.945312 -1.671875 -1.515625 -11.082031 2.484375 -20.21875 C 6.484375 -29.363281 10.617188 -38.242188 14.890625 -46.859375 C 18.546875 -54.171875 22.285156 -61.394531 26.109375 -68.53125 C 29.941406 -75.675781 34.617188 -82.25 40.140625 -88.25 C 40.210938 -88.382812 40.382812 -88.625 40.65625 -88.96875 C 40.9375 -89.3125 41.226562 -89.640625 41.53125 -89.953125 C 41.84375 -90.265625 42.207031 -90.421875 42.625 -90.421875 C 43.039062 -90.421875 43.554688 -90.175781 44.171875 -89.6875 Z M 44.171875 -89.6875 "/></g></g></g><g fill="#efecec" fill-opacity="1"><g transform="translate(152.38589, 112.495292)"><g><path d="M 35.375 -15.3125 C 35.863281 -15.582031 36.414062 -15.71875 37.03125 -15.71875 C 37.101562 -15.375 36.96875 -15.046875 36.625 -14.734375 C 36.28125 -14.429688 35.96875 -14.140625 35.6875 -13.859375 L 35.078125 -13.34375 C 32.585938 -11.476562 30.066406 -9.664062 27.515625 -7.90625 C 24.960938 -6.15625 22.21875 -4.707031 19.28125 -3.5625 C 16.351562 -2.425781 13.097656 -1.859375 9.515625 -1.859375 L 9.109375 -1.859375 C 5.585938 -1.859375 2.863281 -2.925781 0.9375 -5.0625 C -0.789062 -7.0625 -1.378906 -9.476562 -0.828125 -12.3125 C 1.097656 -21.757812 7.238281 -27.863281 17.59375 -30.625 C 18.144531 -30.757812 18.695312 -30.828125 19.25 -30.828125 C 20.894531 -30.828125 22.238281 -30.101562 23.28125 -28.65625 C 24.101562 -27.550781 24.359375 -26.601562 24.046875 -25.8125 C 23.742188 -25.019531 23.28125 -24.207031 22.65625 -23.375 C 19.894531 -20 15.34375 -17.828125 9 -16.859375 C 6.726562 -16.515625 5.242188 -15.617188 4.546875 -14.171875 C 3.859375 -12.722656 3.34375 -11.171875 3 -9.515625 L 2.890625 -8.796875 C 2.691406 -7.828125 2.863281 -6.929688 3.40625 -6.109375 C 4.164062 -5.066406 5.375 -4.304688 7.03125 -3.828125 C 8.269531 -3.484375 9.582031 -3.3125 10.96875 -3.3125 C 12.070312 -3.3125 13.140625 -3.414062 14.171875 -3.625 C 15.203125 -3.832031 16.304688 -4.109375 17.484375 -4.453125 C 21.140625 -5.484375 24.796875 -7.238281 28.453125 -9.71875 C 30.035156 -10.757812 31.617188 -12.003906 33.203125 -13.453125 C 33.347656 -13.515625 33.488281 -13.613281 33.625 -13.75 C 33.757812 -13.894531 33.894531 -14.035156 34.03125 -14.171875 C 34.238281 -14.378906 34.445312 -14.566406 34.65625 -14.734375 C 34.863281 -14.910156 35.101562 -15.101562 35.375 -15.3125 Z M 10.234375 -20.59375 L 9.515625 -19.765625 L 10.65625 -20.0625 C 13.070312 -20.613281 15.125 -21.335938 16.8125 -22.234375 C 18.5 -23.140625 19.960938 -24.59375 21.203125 -26.59375 L 21.625 -27.421875 L 20.6875 -27.109375 C 18.6875 -26.484375 16.820312 -25.703125 15.09375 -24.765625 C 13.375 -23.835938 11.753906 -22.445312 10.234375 -20.59375 Z M 10.234375 -20.59375 "/></g></g></g><g fill="#efecec" fill-opacity="1"><g transform="translate(187.665712, 112.495292)"><g><path d="M 41.6875 -15.421875 C 41.832031 -15.210938 41.851562 -14.914062 41.75 -14.53125 C 41.644531 -14.15625 41.421875 -13.828125 41.078125 -13.546875 C 38.171875 -11.203125 35.078125 -8.890625 31.796875 -6.609375 C 28.523438 -4.335938 24.992188 -2.269531 21.203125 -0.40625 C 17.410156 1.445312 13.304688 2.859375 8.890625 3.828125 C 7.648438 4.097656 6.476562 4.234375 5.375 4.234375 C 2.613281 4.234375 0.203125 3.269531 -1.859375 1.34375 C -4.828125 -1.414062 -5.550781 -4.796875 -4.03125 -8.796875 C -0.03125 -19.273438 7.625 -27.273438 18.9375 -32.796875 C 20.238281 -33.484375 21.546875 -33.828125 22.859375 -33.828125 C 24.929688 -33.828125 26.726562 -32.929688 28.25 -31.140625 C 29.34375 -29.960938 29.925781 -28.769531 30 -27.5625 C 30.070312 -26.363281 29.914062 -25.242188 29.53125 -24.203125 C 29.15625 -23.171875 28.726562 -22.34375 28.25 -21.71875 C 27.695312 -20.820312 27.054688 -20.046875 26.328125 -19.390625 C 25.609375 -18.742188 24.9375 -18.210938 24.3125 -17.796875 L 24.109375 -17.59375 C 23.898438 -17.445312 23.640625 -17.253906 23.328125 -17.015625 C 23.015625 -16.773438 22.722656 -16.65625 22.453125 -16.65625 C 22.171875 -16.726562 21.960938 -16.832031 21.828125 -16.96875 C 21.617188 -17.3125 21.703125 -17.863281 22.078125 -18.625 C 22.460938 -19.382812 22.945312 -20.160156 23.53125 -20.953125 C 24.125 -21.742188 24.625 -22.414062 25.03125 -22.96875 C 25.863281 -23.9375 26.3125 -24.519531 26.375 -24.71875 C 26.375 -24.925781 26.445312 -25.171875 26.59375 -25.453125 C 26.789062 -25.929688 26.925781 -26.476562 27 -27.09375 C 27.070312 -27.71875 26.757812 -28.34375 26.0625 -28.96875 C 25.375 -29.519531 24.648438 -29.796875 23.890625 -29.796875 C 23.203125 -29.796875 22.410156 -29.554688 21.515625 -29.078125 C 11.648438 -23.828125 4.410156 -16.097656 -0.203125 -5.890625 C -1.304688 -3.410156 -0.960938 -1.410156 0.828125 0.109375 C 2.140625 1.273438 3.828125 1.859375 5.890625 1.859375 C 6.441406 1.859375 6.992188 1.828125 7.546875 1.765625 C 11.335938 1.347656 14.785156 0.429688 17.890625 -0.984375 C 20.992188 -2.398438 23.6875 -3.796875 25.96875 -5.171875 C 28.238281 -6.484375 30.789062 -8.171875 33.625 -10.234375 C 34.039062 -10.515625 34.4375 -10.8125 34.8125 -11.125 C 35.1875 -11.4375 35.546875 -11.726562 35.890625 -12 C 36.585938 -12.625 37.3125 -13.210938 38.0625 -13.765625 C 38.820312 -14.316406 39.617188 -14.796875 40.453125 -15.203125 C 40.796875 -15.410156 41.101562 -15.515625 41.375 -15.515625 C 41.519531 -15.515625 41.625 -15.484375 41.6875 -15.421875 Z M 41.6875 -15.421875 "/></g></g></g><g fill="#efecec" fill-opacity="1"><g transform="translate(227.187395, 112.495292)"><g><path d="M 59.6875 -50.796875 C 59.894531 -50.585938 60.035156 -50.273438 60.109375 -49.859375 C 60.109375 -49.648438 60.054688 -49.457031 59.953125 -49.28125 C 59.847656 -49.113281 59.554688 -49.03125 59.078125 -49.03125 C 58.867188 -49.03125 58.640625 -49.046875 58.390625 -49.078125 C 58.148438 -49.117188 57.929688 -49.140625 57.734375 -49.140625 L 57.203125 -49.25 C 53.410156 -49.726562 49.671875 -50.035156 45.984375 -50.171875 C 42.296875 -50.304688 38.726562 -50.375 35.28125 -50.375 L 30 -50.28125 C 29.101562 -50.28125 28.1875 -50.296875 27.25 -50.328125 C 26.320312 -50.359375 25.410156 -50.375 24.515625 -50.375 C 23.410156 -50.375 22.476562 -50.234375 21.71875 -49.953125 C 20.96875 -49.679688 20.382812 -49.097656 19.96875 -48.203125 L 18.109375 -44.6875 C 13.617188 -36 9.234375 -27.066406 4.953125 -17.890625 C 0.679688 -8.722656 -2.726562 0.894531 -5.28125 10.96875 C -7.28125 18.832031 -8.207031 26.039062 -8.0625 32.59375 C -8.0625 32.863281 -8.0625 33.140625 -8.0625 33.421875 C -8.0625 34.035156 -8.046875 34.617188 -8.015625 35.171875 C -7.984375 35.722656 -7.757812 36.238281 -7.34375 36.71875 C -6.726562 37.34375 -5.796875 37.722656 -4.546875 37.859375 C -4.273438 37.859375 -4.070312 37.960938 -3.9375 38.171875 C -3.65625 38.453125 -3.476562 38.796875 -3.40625 39.203125 C -3.34375 39.691406 -3.445312 40.019531 -3.71875 40.1875 C -4 40.363281 -4.273438 40.453125 -4.546875 40.453125 L -4.65625 40.453125 C -7.6875 40.453125 -9.617188 39.003906 -10.453125 36.109375 C -10.929688 34.585938 -11.148438 33.117188 -11.109375 31.703125 C -11.078125 30.296875 -10.992188 28.898438 -10.859375 27.515625 L -10.765625 26.6875 C -10.210938 20.476562 -9.175781 14.476562 -7.65625 8.6875 C -6.132812 2.894531 -4.320312 -2.722656 -2.21875 -8.171875 C -0.113281 -13.617188 2.003906 -19 4.140625 -24.3125 L 4.765625 -25.65625 C 5.796875 -28.28125 6.929688 -30.847656 8.171875 -33.359375 C 9.410156 -35.878906 10.617188 -38.378906 11.796875 -40.859375 C 12.410156 -42.035156 13.007812 -43.207031 13.59375 -44.375 C 14.1875 -45.550781 14.757812 -46.726562 15.3125 -47.90625 C 15.445312 -48.25 15.53125 -48.644531 15.5625 -49.09375 C 15.601562 -49.539062 15.347656 -50.242188 14.796875 -51.203125 L 14.59375 -51.421875 L 14.375 -51.421875 C 12.863281 -51.421875 11.3125 -51.421875 9.71875 -51.421875 C 8.132812 -51.421875 6.550781 -51.421875 4.96875 -51.421875 C 3.382812 -51.484375 1.78125 -51.515625 0.15625 -51.515625 C -1.46875 -51.515625 -3.109375 -51.515625 -4.765625 -51.515625 C -9.867188 -51.515625 -14.382812 -51.445312 -18.3125 -51.3125 C -19.132812 -51.238281 -19.957031 -51.203125 -20.78125 -51.203125 C -21.613281 -51.203125 -22.445312 -51.203125 -23.28125 -51.203125 C -25.414062 -51.140625 -27.566406 -51.054688 -29.734375 -50.953125 C -31.910156 -50.847656 -34 -50.554688 -36 -50.078125 C -36.625 -49.929688 -37.140625 -49.859375 -37.546875 -49.859375 C -38.035156 -49.859375 -38.453125 -49.960938 -38.796875 -50.171875 C -39.003906 -50.378906 -39.175781 -50.722656 -39.3125 -51.203125 C -39.445312 -51.828125 -39.132812 -52.140625 -38.375 -52.140625 C -38.238281 -52.140625 -37.960938 -52.117188 -37.546875 -52.078125 C -37.140625 -52.046875 -36.9375 -52.03125 -36.9375 -52.03125 L -36.625 -52.03125 C -32.757812 -52.375 -28.945312 -52.597656 -25.1875 -52.703125 C -21.425781 -52.804688 -18.066406 -52.859375 -15.109375 -52.859375 C -13.515625 -52.859375 -11.90625 -52.859375 -10.28125 -52.859375 C -8.664062 -52.859375 -7.066406 -52.859375 -5.484375 -52.859375 C -3.898438 -52.796875 -2.296875 -52.765625 -0.671875 -52.765625 C 0.953125 -52.765625 2.554688 -52.765625 4.140625 -52.765625 C 5.660156 -52.765625 7.175781 -52.765625 8.6875 -52.765625 C 10.207031 -52.765625 11.722656 -52.796875 13.234375 -52.859375 C 14.691406 -52.929688 15.988281 -53.191406 17.125 -53.640625 C 18.257812 -54.085938 19.171875 -55 19.859375 -56.375 C 22.753906 -62.445312 26.753906 -68.242188 31.859375 -73.765625 C 31.929688 -73.898438 32.070312 -74.070312 32.28125 -74.28125 C 32.488281 -74.550781 32.710938 -74.820312 32.953125 -75.09375 C 33.191406 -75.375 33.484375 -75.515625 33.828125 -75.515625 C 34.171875 -75.515625 34.585938 -75.3125 35.078125 -74.90625 C 35.691406 -74.351562 35.929688 -73.800781 35.796875 -73.25 C 35.660156 -72.695312 35.382812 -72.109375 34.96875 -71.484375 C 34.414062 -70.722656 33.894531 -70 33.40625 -69.3125 C 32.925781 -68.625 32.445312 -67.96875 31.96875 -67.34375 C 30.445312 -65.28125 28.925781 -63.125 27.40625 -60.875 C 25.894531 -58.632812 24.484375 -56.171875 23.171875 -53.484375 L 22.859375 -52.96875 L 32.078125 -52.96875 C 39.378906 -52.96875 47.65625 -52.414062 56.90625 -51.3125 C 57.039062 -51.3125 57.28125 -51.3125 57.625 -51.3125 C 57.96875 -51.3125 58.328125 -51.273438 58.703125 -51.203125 C 59.085938 -51.140625 59.414062 -51.003906 59.6875 -50.796875 Z M 59.6875 -50.796875 "/></g></g></g><g fill="#efecec" fill-opacity="1"><g transform="translate(244.9825, 112.495292)"><g><path d="M 36 -16.453125 C 36.207031 -16.304688 36.3125 -15.992188 36.3125 -15.515625 C 36.3125 -15.035156 36.015625 -14.585938 35.421875 -14.171875 C 34.835938 -13.753906 34.375 -13.410156 34.03125 -13.140625 C 32.863281 -12.109375 31.65625 -11.109375 30.40625 -10.140625 C 29.164062 -9.171875 27.925781 -8.238281 26.6875 -7.34375 C 24.070312 -5.476562 21.296875 -3.820312 18.359375 -2.375 C 15.429688 -0.925781 12.3125 0.242188 9 1.140625 C 7.625 1.484375 6.175781 1.65625 4.65625 1.65625 C 3.132812 1.65625 1.617188 0.96875 0.109375 -0.40625 C -1.410156 -1.71875 -2.253906 -3.113281 -2.421875 -4.59375 C -2.597656 -6.082031 -2.476562 -7.515625 -2.0625 -8.890625 C -0.820312 -13.585938 0.929688 -17.96875 3.203125 -22.03125 C 5.484375 -26.101562 8.207031 -29.863281 11.375 -33.3125 C 11.71875 -33.789062 12.148438 -34.238281 12.671875 -34.65625 C 13.191406 -35.070312 13.898438 -34.9375 14.796875 -34.25 C 15.753906 -33.488281 16.0625 -32.8125 15.71875 -32.21875 C 15.375 -31.632812 15.066406 -31.101562 14.796875 -30.625 C 12.585938 -27.101562 10.445312 -23.582031 8.375 -20.0625 C 6.3125 -16.550781 4.484375 -12.863281 2.890625 -9 C 2.617188 -8.3125 2.273438 -7.585938 1.859375 -6.828125 C 1.441406 -6.066406 1.234375 -5.289062 1.234375 -4.5 C 1.234375 -3.707031 1.613281 -2.929688 2.375 -2.171875 C 3.613281 -0.859375 4.992188 -0.304688 6.515625 -0.515625 C 8.035156 -0.722656 9.414062 -0.960938 10.65625 -1.234375 C 13.34375 -1.859375 15.820312 -2.789062 18.09375 -4.03125 C 20.375 -5.269531 22.550781 -6.648438 24.625 -8.171875 C 24.894531 -8.378906 25.582031 -8.960938 26.6875 -9.921875 C 27.789062 -10.890625 29 -11.925781 30.3125 -13.03125 C 31.625 -14.132812 32.832031 -15.03125 33.9375 -15.71875 C 35.039062 -16.414062 35.726562 -16.660156 36 -16.453125 Z M 19.34375 -39.109375 C 17.757812 -38.960938 16.757812 -39.6875 16.34375 -41.28125 C 16 -42.65625 16.132812 -43.632812 16.75 -44.21875 C 17.375 -44.8125 18.273438 -45.140625 19.453125 -45.203125 C 20.273438 -45.273438 20.992188 -45.101562 21.609375 -44.6875 C 22.234375 -44.28125 22.6875 -43.554688 22.96875 -42.515625 C 23.03125 -41.347656 22.71875 -40.519531 22.03125 -40.03125 C 21.34375 -39.550781 20.445312 -39.242188 19.34375 -39.109375 Z M 19.34375 -39.109375 "/></g></g></g><g fill="#efecec" fill-opacity="1"><g transform="translate(279.124285, 112.495292)"><g><path d="M 32.890625 -17.28125 C 33.515625 -17.28125 33.96875 -17.003906 34.25 -16.453125 C 34.382812 -16.242188 34.414062 -16.070312 34.34375 -15.9375 C 34.28125 -15.789062 34.109375 -15.664062 33.828125 -15.5625 C 33.554688 -15.46875 33.28125 -15.382812 33 -15.3125 C 32.65625 -15.238281 32.414062 -15.203125 32.28125 -15.203125 C 26.757812 -13.617188 21.222656 -11.550781 15.671875 -9 C 10.117188 -6.445312 4.273438 -3.273438 -1.859375 0.515625 C -3.796875 1.691406 -5.160156 3.207031 -5.953125 5.0625 C -6.742188 6.925781 -7.414062 8.828125 -7.96875 10.765625 C -8.238281 11.660156 -8.507812 12.554688 -8.78125 13.453125 C -9.0625 14.347656 -9.410156 15.207031 -9.828125 16.03125 C -9.898438 16.164062 -9.882812 16.390625 -9.78125 16.703125 C -9.675781 17.015625 -9.554688 17.3125 -9.421875 17.59375 L -9.3125 17.890625 C -7.445312 22.035156 -6.546875 26.257812 -6.609375 30.5625 C -6.679688 34.875 -7.597656 38.804688 -9.359375 42.359375 C -11.117188 45.910156 -13.617188 48.617188 -16.859375 50.484375 C -17.203125 50.691406 -17.597656 50.898438 -18.046875 51.109375 C -18.492188 51.316406 -18.960938 51.421875 -19.453125 51.421875 C -20.140625 51.421875 -20.863281 51.109375 -21.625 50.484375 C -22.582031 49.722656 -23.023438 48.945312 -22.953125 48.15625 C -22.890625 47.363281 -22.753906 46.625 -22.546875 45.9375 C -21.515625 42.832031 -20.5 39.757812 -19.5 36.71875 C -18.5 33.6875 -17.484375 30.6875 -16.453125 27.71875 L -13.96875 20.28125 C -13.28125 18.28125 -13.347656 16.726562 -14.171875 15.625 C -15.003906 14.519531 -16.625 13.796875 -19.03125 13.453125 C -19.238281 13.453125 -19.550781 13.453125 -19.96875 13.453125 C -20.519531 13.378906 -20.984375 13.289062 -21.359375 13.1875 C -21.742188 13.082031 -22.039062 12.753906 -22.25 12.203125 C -22.382812 11.796875 -22.363281 11.488281 -22.1875 11.28125 C -22.019531 11.070312 -21.726562 10.828125 -21.3125 10.546875 C -21.03125 10.335938 -20.859375 10.203125 -20.796875 10.140625 C -20.515625 9.859375 -20.304688 9.71875 -20.171875 9.71875 C -16.378906 8.132812 -13.222656 6.015625 -10.703125 3.359375 C -8.191406 0.703125 -6.085938 -2.222656 -4.390625 -5.421875 C -2.703125 -8.628906 -1.203125 -11.890625 0.109375 -15.203125 C 6.722656 -31.828125 14.476562 -46.550781 23.375 -59.375 C 24 -60.34375 24.738281 -61.289062 25.59375 -62.21875 C 26.457031 -63.15625 27.476562 -63.9375 28.65625 -64.5625 C 29.414062 -64.96875 30.140625 -65.171875 30.828125 -65.171875 C 32.410156 -65.171875 33.648438 -64.101562 34.546875 -61.96875 C 35.171875 -60.445312 35.445312 -58.445312 35.375 -55.96875 C 35.3125 -53.488281 34.953125 -50.972656 34.296875 -48.421875 C 33.640625 -45.867188 32.773438 -43.570312 31.703125 -41.53125 C 30.640625 -39.5 29.519531 -38.140625 28.34375 -37.453125 C 27.863281 -37.171875 27.484375 -37.03125 27.203125 -37.03125 C 26.992188 -37.03125 26.820312 -37.101562 26.6875 -37.25 C 26.070312 -37.65625 25.765625 -38.097656 25.765625 -38.578125 C 25.765625 -39.066406 25.796875 -39.414062 25.859375 -39.625 C 26.410156 -41.070312 26.960938 -42.519531 27.515625 -43.96875 C 28.066406 -45.414062 28.65625 -46.828125 29.28125 -48.203125 L 29.484375 -48.828125 C 30.171875 -50.347656 30.804688 -51.914062 31.390625 -53.53125 C 31.984375 -55.15625 32.347656 -56.898438 32.484375 -58.765625 C 32.484375 -58.898438 32.519531 -59.140625 32.59375 -59.484375 C 32.65625 -59.960938 32.671875 -60.492188 32.640625 -61.078125 C 32.609375 -61.671875 32.28125 -62.207031 31.65625 -62.6875 C 31.175781 -62.96875 30.765625 -63.109375 30.421875 -63.109375 C 30.003906 -63.109375 29.675781 -63.003906 29.4375 -62.796875 C 29.195312 -62.585938 28.9375 -62.347656 28.65625 -62.078125 C 28.445312 -61.796875 28.3125 -61.617188 28.25 -61.546875 C 26.175781 -59.691406 24.394531 -57.609375 22.90625 -55.296875 C 21.425781 -52.984375 20 -50.617188 18.625 -48.203125 L 18.3125 -47.6875 C 10.789062 -34.445312 3.722656 -19.414062 -2.890625 -2.59375 L -3.203125 -1.765625 L -2.375 -2.171875 C -1.207031 -2.722656 -0.0546875 -3.289062 1.078125 -3.875 C 2.222656 -4.46875 3.347656 -5.039062 4.453125 -5.59375 C 6.859375 -6.757812 9.234375 -7.925781 11.578125 -9.09375 C 13.929688 -10.269531 16.28125 -11.410156 18.625 -12.515625 C 20.207031 -13.203125 21.828125 -13.820312 23.484375 -14.375 C 25.140625 -14.925781 26.796875 -15.476562 28.453125 -16.03125 L 31.25 -16.96875 C 31.445312 -17.03125 31.703125 -17.097656 32.015625 -17.171875 C 32.328125 -17.242188 32.617188 -17.28125 32.890625 -17.28125 Z M -17.59375 42.3125 C -14.757812 39.625 -12.773438 36.429688 -11.640625 32.734375 C -10.503906 29.046875 -10.3125 25.238281 -11.0625 21.3125 L -11.6875 21.203125 L -12.203125 22.453125 C -13.378906 25.617188 -14.484375 28.753906 -15.515625 31.859375 C -16.546875 34.960938 -17.441406 38.3125 -18.203125 41.90625 Z M -9.3125 6 L -9.109375 5.0625 L -17.484375 11.0625 L -17.0625 11.28125 C -15.96875 11.96875 -15.070312 12.5 -14.375 12.875 C -13.6875 13.257812 -13.101562 13.453125 -12.625 13.453125 C -11.789062 13.453125 -11.179688 12.878906 -10.796875 11.734375 C -10.421875 10.597656 -9.925781 8.6875 -9.3125 6 Z M -9.3125 6 "/></g></g></g><g fill="#efecec" fill-opacity="1"><g transform="translate(310.989938, 112.495292)"><g><path d="M 54.828125 -17.375 C 54.960938 -17.238281 54.910156 -16.976562 54.671875 -16.59375 C 54.429688 -16.21875 54.207031 -15.925781 54 -15.71875 C 53.3125 -15.164062 52.535156 -14.664062 51.671875 -14.21875 C 50.804688 -13.769531 49.925781 -13.34375 49.03125 -12.9375 C 48.625 -12.726562 48.210938 -12.5 47.796875 -12.25 C 47.378906 -12.007812 47 -11.789062 46.65625 -11.59375 C 45.28125 -10.832031 43.914062 -10.070312 42.5625 -9.3125 C 41.21875 -8.550781 39.894531 -7.757812 38.59375 -6.9375 C 32.863281 -3.414062 27.863281 0.101562 23.59375 3.625 C 22.070312 4.9375 20.894531 6.453125 20.0625 8.171875 L 17.59375 13.453125 C 15.382812 18.003906 13.140625 22.625 10.859375 27.3125 C 8.585938 32 6.101562 36.550781 3.40625 40.96875 C 2.3125 42.6875 0.988281 44.597656 -0.5625 46.703125 C -2.113281 48.804688 -3.992188 50.753906 -6.203125 52.546875 C -6.691406 52.898438 -7.226562 53.265625 -7.8125 53.640625 C -8.394531 54.015625 -9.066406 54.273438 -9.828125 54.421875 C -10.453125 54.628906 -10.96875 54.734375 -11.375 54.734375 C -12.414062 54.734375 -13.3125 54.351562 -14.0625 53.59375 C -14.6875 53.039062 -15.03125 52.46875 -15.09375 51.875 C -15.164062 51.289062 -15.171875 50.617188 -15.109375 49.859375 C -14.898438 48.273438 -14.5 46.8125 -13.90625 45.46875 C -13.320312 44.125 -12.722656 42.832031 -12.109375 41.59375 C -6.796875 31.519531 0.925781 21.757812 11.0625 12.3125 C 14.3125 9.28125 16.832031 5.832031 18.625 1.96875 C 19.789062 -0.445312 20.992188 -2.859375 22.234375 -5.265625 C 23.484375 -7.679688 24.726562 -10.097656 25.96875 -12.515625 L 29.375 -19.34375 L 28.453125 -19.03125 C 26.171875 -18.132812 24.113281 -17.015625 22.28125 -15.671875 C 20.457031 -14.328125 18.71875 -12.929688 17.0625 -11.484375 C 16.375 -10.859375 15.664062 -10.253906 14.9375 -9.671875 C 14.21875 -9.085938 13.476562 -8.519531 12.71875 -7.96875 L 11.0625 -6.71875 C 9.6875 -5.613281 8.238281 -4.5625 6.71875 -3.5625 C 5.207031 -2.5625 3.554688 -1.753906 1.765625 -1.140625 C 1.003906 -0.929688 0.3125 -0.828125 -0.3125 -0.828125 C -1.34375 -0.828125 -2.34375 -1.207031 -3.3125 -1.96875 C -4.894531 -3.132812 -5.582031 -4.753906 -5.375 -6.828125 C -4.96875 -10.003906 -3.898438 -12.691406 -2.171875 -14.890625 C -0.453125 -17.097656 1.441406 -19.097656 3.515625 -20.890625 C 3.859375 -21.242188 4.273438 -21.421875 4.765625 -21.421875 C 5.242188 -21.421875 5.722656 -21.210938 6.203125 -20.796875 C 6.691406 -20.304688 6.914062 -19.875 6.875 -19.5 C 6.84375 -19.125 6.65625 -18.691406 6.3125 -18.203125 C 5.96875 -17.722656 5.640625 -17.238281 5.328125 -16.75 C 5.015625 -16.269531 4.6875 -15.789062 4.34375 -15.3125 C 3.863281 -14.625 3.378906 -13.953125 2.890625 -13.296875 C 2.410156 -12.640625 1.960938 -11.96875 1.546875 -11.28125 C 1.410156 -11.070312 1.253906 -10.84375 1.078125 -10.59375 C 0.910156 -10.351562 0.722656 -10.132812 0.515625 -9.9375 C 0.0976562 -9.382812 -0.3125 -8.796875 -0.71875 -8.171875 C -1.132812 -7.546875 -1.410156 -6.859375 -1.546875 -6.109375 C -1.753906 -5.210938 -1.648438 -4.519531 -1.234375 -4.03125 C -0.753906 -3.550781 -0.03125 -3.3125 0.9375 -3.3125 C 1.414062 -3.3125 1.929688 -3.363281 2.484375 -3.46875 C 3.035156 -3.570312 3.484375 -3.691406 3.828125 -3.828125 C 4.648438 -4.171875 5.40625 -4.566406 6.09375 -5.015625 C 6.789062 -5.460938 7.484375 -5.929688 8.171875 -6.421875 C 9.753906 -7.585938 11.335938 -8.773438 12.921875 -9.984375 C 14.515625 -11.191406 16.070312 -12.378906 17.59375 -13.546875 C 18.832031 -14.515625 20.085938 -15.5 21.359375 -16.5 C 22.640625 -17.5 23.898438 -18.445312 25.140625 -19.34375 C 25.347656 -19.476562 25.585938 -19.6875 25.859375 -19.96875 C 26.273438 -20.3125 26.707031 -20.640625 27.15625 -20.953125 C 27.601562 -21.265625 28.101562 -21.421875 28.65625 -21.421875 C 29.207031 -21.421875 29.828125 -21.144531 30.515625 -20.59375 C 31.273438 -19.894531 31.585938 -19.164062 31.453125 -18.40625 C 31.316406 -17.65625 31.070312 -16.898438 30.71875 -16.140625 C 30.519531 -15.722656 30.382812 -15.410156 30.3125 -15.203125 C 30.03125 -14.378906 29.753906 -13.570312 29.484375 -12.78125 C 29.210938 -11.988281 28.898438 -11.210938 28.546875 -10.453125 C 28.066406 -9.140625 27.582031 -7.8125 27.09375 -6.46875 C 26.613281 -5.125 26.171875 -3.726562 25.765625 -2.28125 L 26.375 -1.96875 C 26.445312 -2.238281 26.738281 -2.507812 27.25 -2.78125 C 27.769531 -3.0625 28.238281 -3.269531 28.65625 -3.40625 C 29.132812 -3.6875 29.445312 -3.863281 29.59375 -3.9375 L 33.109375 -6.109375 C 36.554688 -8.316406 40.070312 -10.347656 43.65625 -12.203125 C 45.519531 -13.171875 47.347656 -14.066406 49.140625 -14.890625 C 49.347656 -15.035156 49.585938 -15.175781 49.859375 -15.3125 C 50.140625 -15.445312 50.382812 -15.582031 50.59375 -15.71875 C 51.28125 -16 51.929688 -16.289062 52.546875 -16.59375 C 53.171875 -16.90625 53.828125 -17.164062 54.515625 -17.375 C 54.660156 -17.375 54.765625 -17.375 54.828125 -17.375 Z M -8.6875 50.375 C -4.132812 45.6875 -0.378906 40.410156 2.578125 34.546875 C 5.546875 28.691406 8.34375 22.796875 10.96875 16.859375 L 10.453125 16.234375 C 3.828125 21.828125 -1.929688 28.035156 -6.828125 34.859375 C -8.066406 36.648438 -9.269531 38.53125 -10.4375 40.5 C -11.613281 42.46875 -12.515625 44.660156 -13.140625 47.078125 C -13.203125 47.273438 -13.269531 47.550781 -13.34375 47.90625 C -13.550781 48.519531 -13.6875 49.171875 -13.75 49.859375 C -13.820312 50.554688 -13.476562 51.210938 -12.71875 51.828125 C -12.238281 52.171875 -11.757812 52.34375 -11.28125 52.34375 C -10.789062 52.34375 -10.375 52.1875 -10.03125 51.875 C -9.6875 51.570312 -9.378906 51.25 -9.109375 50.90625 C -8.898438 50.625 -8.757812 50.445312 -8.6875 50.375 Z M -8.6875 50.375 "/></g></g></g></svg>