<svg xmlns="http://www.w3.org/2000/svg" xmlns:xlink="http://www.w3.org/1999/xlink" width="500" zoomAndPan="magnify" viewBox="0 0 375 374.999991" height="500" preserveAspectRatio="xMidYMid meet" version="1.0"><defs><g/><clipPath id="5f8b94ec98"><path d="M 8.398438 157.632812 L 56.398438 157.632812 L 56.398438 209.382812 L 8.398438 209.382812 Z M 8.398438 157.632812 " clip-rule="nonzero"/></clipPath></defs><g clip-path="url(#5f8b94ec98)"><path fill="#0a0c06" d="M 43.070312 209.382812 L 56.378906 209.382812 L 43.738281 190.902344 C 45.941406 190.089844 47.878906 188.96875 49.539062 187.511719 C 51.191406 186.070312 52.484375 184.296875 53.410156 182.191406 C 54.347656 180.082031 54.8125 177.644531 54.828125 174.859375 L 54.828125 174.710938 C 54.828125 172.257812 54.445312 170.039062 53.691406 168.042969 C 52.941406 166.046875 51.832031 164.335938 50.390625 162.882812 C 48.691406 161.167969 46.574219 159.871094 44.046875 158.976562 C 41.523438 158.082031 38.597656 157.632812 35.308594 157.632812 L 8.417969 157.632812 L 15.296875 167.910156 L 34.347656 167.910156 C 36.207031 167.910156 37.796875 168.191406 39.128906 168.746094 C 40.460938 169.300781 41.496094 170.113281 42.210938 171.210938 C 42.925781 172.308594 43.28125 173.675781 43.292969 175.300781 L 43.292969 175.449219 C 43.292969 176.917969 42.949219 178.199219 42.257812 179.28125 C 41.582031 180.378906 40.59375 181.230469 39.300781 181.84375 C 37.996094 182.449219 36.417969 182.757812 34.570312 182.769531 L 25.25 182.769531 Z M 43.070312 209.382812 " fill-opacity="1" fill-rule="nonzero"/></g><g fill="#0a0c06" fill-opacity="1"><g transform="translate(67.787834, 213.321769)"><g><path d="M 34.234375 -14.8125 C 34.691406 -15.082031 35.222656 -15.21875 35.828125 -15.21875 C 35.890625 -14.882812 35.753906 -14.566406 35.421875 -14.265625 C 35.085938 -13.960938 34.789062 -13.675781 34.53125 -13.40625 L 33.921875 -12.90625 C 31.523438 -11.101562 29.09375 -9.351562 26.625 -7.65625 C 24.15625 -5.957031 21.5 -4.554688 18.65625 -3.453125 C 15.820312 -2.347656 12.671875 -1.796875 9.203125 -1.796875 L 8.8125 -1.796875 C 5.40625 -1.796875 2.769531 -2.832031 0.90625 -4.90625 C -0.757812 -6.84375 -1.328125 -9.175781 -0.796875 -11.90625 C 1.066406 -21.050781 7.003906 -26.957031 17.015625 -29.625 C 17.546875 -29.757812 18.078125 -29.828125 18.609375 -29.828125 C 20.210938 -29.828125 21.515625 -29.125 22.515625 -27.71875 C 23.316406 -26.65625 23.566406 -25.738281 23.265625 -24.96875 C 22.960938 -24.195312 22.515625 -23.414062 21.921875 -22.625 C 19.242188 -19.351562 14.835938 -17.25 8.703125 -16.3125 C 6.503906 -15.976562 5.070312 -15.109375 4.40625 -13.703125 C 3.738281 -12.304688 3.238281 -10.804688 2.90625 -9.203125 L 2.796875 -8.5 C 2.597656 -7.570312 2.765625 -6.707031 3.296875 -5.90625 C 4.035156 -4.90625 5.207031 -4.171875 6.8125 -3.703125 C 8.007812 -3.367188 9.273438 -3.203125 10.609375 -3.203125 C 11.671875 -3.203125 12.703125 -3.300781 13.703125 -3.5 C 14.710938 -3.695312 15.78125 -3.960938 16.90625 -4.296875 C 20.445312 -5.296875 23.984375 -7 27.515625 -9.40625 C 29.054688 -10.40625 30.59375 -11.609375 32.125 -13.015625 C 32.257812 -13.078125 32.390625 -13.175781 32.515625 -13.3125 C 32.648438 -13.445312 32.785156 -13.578125 32.921875 -13.703125 C 33.117188 -13.910156 33.316406 -14.097656 33.515625 -14.265625 C 33.722656 -14.429688 33.960938 -14.613281 34.234375 -14.8125 Z M 9.90625 -19.921875 L 9.203125 -19.109375 L 10.3125 -19.421875 C 12.644531 -19.953125 14.628906 -20.648438 16.265625 -21.515625 C 17.898438 -22.378906 19.316406 -23.78125 20.515625 -25.71875 L 20.921875 -26.515625 L 20.015625 -26.21875 C 18.078125 -25.613281 16.273438 -24.863281 14.609375 -23.96875 C 12.941406 -23.070312 11.375 -21.722656 9.90625 -19.921875 Z M 9.90625 -19.921875 "/></g></g></g><g fill="#0a0c06" fill-opacity="1"><g transform="translate(101.913712, 213.321769)"><g><path d="M 31.828125 -16.71875 C 32.421875 -16.71875 32.851562 -16.445312 33.125 -15.90625 C 33.257812 -15.707031 33.289062 -15.539062 33.21875 -15.40625 C 33.15625 -15.28125 32.988281 -15.164062 32.71875 -15.0625 C 32.457031 -14.957031 32.191406 -14.875 31.921875 -14.8125 C 31.585938 -14.75 31.351562 -14.71875 31.21875 -14.71875 C 25.882812 -13.175781 20.53125 -11.171875 15.15625 -8.703125 C 9.789062 -6.234375 4.140625 -3.164062 -1.796875 0.5 C -3.671875 1.632812 -4.988281 3.101562 -5.75 4.90625 C -6.519531 6.707031 -7.171875 8.539062 -7.703125 10.40625 C -7.972656 11.269531 -8.238281 12.132812 -8.5 13 C -8.769531 13.875 -9.101562 14.710938 -9.5 15.515625 C -9.570312 15.648438 -9.554688 15.863281 -9.453125 16.15625 C -9.359375 16.457031 -9.242188 16.742188 -9.109375 17.015625 L -9 17.3125 C -7.207031 21.3125 -6.34375 25.394531 -6.40625 29.5625 C -6.46875 33.738281 -7.347656 37.546875 -9.046875 40.984375 C -10.753906 44.421875 -13.175781 47.039062 -16.3125 48.84375 C -16.644531 49.039062 -17.023438 49.238281 -17.453125 49.4375 C -17.890625 49.632812 -18.34375 49.734375 -18.8125 49.734375 C -19.476562 49.734375 -20.179688 49.4375 -20.921875 48.84375 C -21.847656 48.101562 -22.28125 47.347656 -22.21875 46.578125 C -22.15625 45.816406 -22.019531 45.101562 -21.8125 44.4375 C -20.8125 41.4375 -19.828125 38.46875 -18.859375 35.53125 C -17.890625 32.59375 -16.90625 29.691406 -15.90625 26.828125 L -13.515625 19.609375 C -12.847656 17.679688 -12.910156 16.179688 -13.703125 15.109375 C -14.503906 14.046875 -16.078125 13.347656 -18.421875 13.015625 C -18.617188 13.015625 -18.914062 13.015625 -19.3125 13.015625 C -19.84375 12.941406 -20.289062 12.851562 -20.65625 12.75 C -21.03125 12.65625 -21.316406 12.34375 -21.515625 11.8125 C -21.648438 11.40625 -21.632812 11.101562 -21.46875 10.90625 C -21.300781 10.707031 -21.015625 10.472656 -20.609375 10.203125 C -20.347656 10.003906 -20.179688 9.875 -20.109375 9.8125 C -19.847656 9.539062 -19.648438 9.40625 -19.515625 9.40625 C -15.847656 7.875 -12.796875 5.820312 -10.359375 3.25 C -7.921875 0.6875 -5.882812 -2.144531 -4.25 -5.25 C -2.613281 -8.351562 -1.164062 -11.507812 0.09375 -14.71875 C 6.5 -30.789062 14.007812 -45.03125 22.625 -57.4375 C 23.21875 -58.375 23.929688 -59.289062 24.765625 -60.1875 C 25.597656 -61.09375 26.582031 -61.847656 27.71875 -62.453125 C 28.457031 -62.847656 29.160156 -63.046875 29.828125 -63.046875 C 31.359375 -63.046875 32.554688 -62.015625 33.421875 -59.953125 C 34.023438 -58.484375 34.289062 -56.546875 34.21875 -54.140625 C 34.15625 -51.742188 33.804688 -49.3125 33.171875 -46.84375 C 32.535156 -44.375 31.703125 -42.15625 30.671875 -40.1875 C 29.640625 -38.21875 28.554688 -36.898438 27.421875 -36.234375 C 26.953125 -35.960938 26.585938 -35.828125 26.328125 -35.828125 C 26.117188 -35.828125 25.945312 -35.894531 25.8125 -36.03125 C 25.21875 -36.425781 24.921875 -36.859375 24.921875 -37.328125 C 24.921875 -37.796875 24.953125 -38.128906 25.015625 -38.328125 C 25.546875 -39.734375 26.078125 -41.132812 26.609375 -42.53125 C 27.148438 -43.9375 27.722656 -45.304688 28.328125 -46.640625 L 28.515625 -47.234375 C 29.179688 -48.703125 29.796875 -50.21875 30.359375 -51.78125 C 30.929688 -53.351562 31.285156 -55.039062 31.421875 -56.84375 C 31.421875 -56.976562 31.457031 -57.210938 31.53125 -57.546875 C 31.59375 -58.015625 31.609375 -58.53125 31.578125 -59.09375 C 31.546875 -59.664062 31.226562 -60.179688 30.625 -60.640625 C 30.15625 -60.910156 29.753906 -61.046875 29.421875 -61.046875 C 29.023438 -61.046875 28.707031 -60.945312 28.46875 -60.75 C 28.238281 -60.550781 27.988281 -60.316406 27.71875 -60.046875 C 27.519531 -59.773438 27.390625 -59.609375 27.328125 -59.546875 C 25.316406 -57.742188 23.59375 -55.722656 22.15625 -53.484375 C 20.726562 -51.253906 19.347656 -48.972656 18.015625 -46.640625 L 17.71875 -46.140625 C 10.445312 -33.328125 3.609375 -18.78125 -2.796875 -2.5 L -3.109375 -1.703125 L -2.296875 -2.109375 C -1.160156 -2.640625 -0.046875 -3.1875 1.046875 -3.75 C 2.148438 -4.320312 3.234375 -4.875 4.296875 -5.40625 C 6.640625 -6.539062 8.941406 -7.675781 11.203125 -8.8125 C 13.472656 -9.945312 15.742188 -11.046875 18.015625 -12.109375 C 19.546875 -12.773438 21.113281 -13.375 22.71875 -13.90625 C 24.320312 -14.445312 25.921875 -14.984375 27.515625 -15.515625 L 30.21875 -16.40625 C 30.425781 -16.476562 30.675781 -16.546875 30.96875 -16.609375 C 31.269531 -16.679688 31.554688 -16.71875 31.828125 -16.71875 Z M -17.015625 40.9375 C -14.273438 38.332031 -12.351562 35.242188 -11.25 31.671875 C -10.15625 28.109375 -9.972656 24.421875 -10.703125 20.609375 L -11.3125 20.515625 L -11.8125 21.71875 C -12.945312 24.789062 -14.015625 27.828125 -15.015625 30.828125 C -16.015625 33.828125 -16.878906 37.0625 -17.609375 40.53125 Z M -9 5.796875 L -8.8125 4.90625 L -16.90625 10.703125 L -16.515625 10.90625 C -15.441406 11.570312 -14.570312 12.085938 -13.90625 12.453125 C -13.238281 12.828125 -12.671875 13.015625 -12.203125 13.015625 C -11.410156 13.015625 -10.828125 12.460938 -10.453125 11.359375 C -10.085938 10.253906 -9.601562 8.398438 -9 5.796875 Z M -9 5.796875 "/></g></g></g><g fill="#0a0c06" fill-opacity="1"><g transform="translate(132.737083, 213.321769)"><g><path d="M 42.734375 -86.765625 C 43.535156 -86.035156 43.851562 -85.351562 43.6875 -84.71875 C 43.519531 -84.082031 43.132812 -83.363281 42.53125 -82.5625 C 41.726562 -81.625 40.976562 -80.617188 40.28125 -79.546875 C 39.582031 -78.484375 38.863281 -77.453125 38.125 -76.453125 C 38.0625 -76.390625 38.007812 -76.320312 37.96875 -76.25 C 37.9375 -76.1875 37.890625 -76.125 37.828125 -76.0625 C 34.222656 -70.851562 30.785156 -65.613281 27.515625 -60.34375 C 20.179688 -48.40625 13.578125 -35.894531 7.703125 -22.8125 C 1.835938 -9.738281 -2.863281 3.769531 -6.40625 17.71875 C -8.800781 27.320312 -9.898438 36.09375 -9.703125 44.03125 C -9.703125 44.363281 -9.738281 44.695312 -9.8125 45.03125 C -9.8125 45.769531 -9.773438 46.472656 -9.703125 47.140625 C -9.640625 47.804688 -9.34375 48.40625 -8.8125 48.9375 C -8.144531 49.738281 -7.007812 50.238281 -5.40625 50.4375 C -5.132812 50.4375 -4.898438 50.570312 -4.703125 50.84375 C -4.367188 51.101562 -4.171875 51.503906 -4.109375 52.046875 C -4.035156 52.640625 -4.148438 53.035156 -4.453125 53.234375 C -4.753906 53.441406 -5.101562 53.546875 -5.5 53.546875 L -5.609375 53.546875 C -9.273438 53.546875 -11.640625 51.8125 -12.703125 48.34375 C -13.242188 46.46875 -13.492188 44.660156 -13.453125 42.921875 C -13.421875 41.191406 -13.304688 39.492188 -13.109375 37.828125 L -13.015625 36.828125 C -12.140625 26.816406 -10.316406 17.125 -7.546875 7.75 C -4.785156 -1.625 -1.472656 -10.726562 2.390625 -19.5625 C 6.265625 -28.40625 10.269531 -36.992188 14.40625 -45.328125 C 17.945312 -52.398438 21.566406 -59.390625 25.265625 -66.296875 C 28.972656 -73.203125 33.492188 -79.554688 38.828125 -85.359375 C 38.898438 -85.492188 39.066406 -85.726562 39.328125 -86.0625 C 39.597656 -86.394531 39.878906 -86.710938 40.171875 -87.015625 C 40.472656 -87.316406 40.828125 -87.46875 41.234375 -87.46875 C 41.628906 -87.46875 42.128906 -87.234375 42.734375 -86.765625 Z M 42.734375 -86.765625 "/></g></g></g><g fill="#0a0c06" fill-opacity="1"><g transform="translate(151.751493, 213.321769)"><g><path d="M 34.234375 -14.8125 C 34.691406 -15.082031 35.222656 -15.21875 35.828125 -15.21875 C 35.890625 -14.882812 35.753906 -14.566406 35.421875 -14.265625 C 35.085938 -13.960938 34.789062 -13.675781 34.53125 -13.40625 L 33.921875 -12.90625 C 31.523438 -11.101562 29.09375 -9.351562 26.625 -7.65625 C 24.15625 -5.957031 21.5 -4.554688 18.65625 -3.453125 C 15.820312 -2.347656 12.671875 -1.796875 9.203125 -1.796875 L 8.8125 -1.796875 C 5.40625 -1.796875 2.769531 -2.832031 0.90625 -4.90625 C -0.757812 -6.84375 -1.328125 -9.175781 -0.796875 -11.90625 C 1.066406 -21.050781 7.003906 -26.957031 17.015625 -29.625 C 17.546875 -29.757812 18.078125 -29.828125 18.609375 -29.828125 C 20.210938 -29.828125 21.515625 -29.125 22.515625 -27.71875 C 23.316406 -26.65625 23.566406 -25.738281 23.265625 -24.96875 C 22.960938 -24.195312 22.515625 -23.414062 21.921875 -22.625 C 19.242188 -19.351562 14.835938 -17.25 8.703125 -16.3125 C 6.503906 -15.976562 5.070312 -15.109375 4.40625 -13.703125 C 3.738281 -12.304688 3.238281 -10.804688 2.90625 -9.203125 L 2.796875 -8.5 C 2.597656 -7.570312 2.765625 -6.707031 3.296875 -5.90625 C 4.035156 -4.90625 5.207031 -4.171875 6.8125 -3.703125 C 8.007812 -3.367188 9.273438 -3.203125 10.609375 -3.203125 C 11.671875 -3.203125 12.703125 -3.300781 13.703125 -3.5 C 14.710938 -3.695312 15.78125 -3.960938 16.90625 -4.296875 C 20.445312 -5.296875 23.984375 -7 27.515625 -9.40625 C 29.054688 -10.40625 30.59375 -11.609375 32.125 -13.015625 C 32.257812 -13.078125 32.390625 -13.175781 32.515625 -13.3125 C 32.648438 -13.445312 32.785156 -13.578125 32.921875 -13.703125 C 33.117188 -13.910156 33.316406 -14.097656 33.515625 -14.265625 C 33.722656 -14.429688 33.960938 -14.613281 34.234375 -14.8125 Z M 9.90625 -19.921875 L 9.203125 -19.109375 L 10.3125 -19.421875 C 12.644531 -19.953125 14.628906 -20.648438 16.265625 -21.515625 C 17.898438 -22.378906 19.316406 -23.78125 20.515625 -25.71875 L 20.921875 -26.515625 L 20.015625 -26.21875 C 18.078125 -25.613281 16.273438 -24.863281 14.609375 -23.96875 C 12.941406 -23.070312 11.375 -21.722656 9.90625 -19.921875 Z M 9.90625 -19.921875 "/></g></g></g><g fill="#0a0c06" fill-opacity="1"><g transform="translate(185.877366, 213.321769)"><g><path d="M 40.328125 -14.90625 C 40.460938 -14.707031 40.476562 -14.425781 40.375 -14.0625 C 40.28125 -13.695312 40.066406 -13.378906 39.734375 -13.109375 C 36.929688 -10.835938 33.941406 -8.601562 30.765625 -6.40625 C 27.597656 -4.207031 24.179688 -2.207031 20.515625 -0.40625 C 16.847656 1.394531 12.878906 2.765625 8.609375 3.703125 C 7.410156 3.972656 6.273438 4.109375 5.203125 4.109375 C 2.535156 4.109375 0.203125 3.171875 -1.796875 1.296875 C -4.671875 -1.367188 -5.375 -4.632812 -3.90625 -8.5 C -0.03125 -18.644531 7.375 -26.382812 18.3125 -31.71875 C 19.582031 -32.382812 20.851562 -32.71875 22.125 -32.71875 C 24.125 -32.71875 25.859375 -31.851562 27.328125 -30.125 C 28.390625 -28.988281 28.953125 -27.835938 29.015625 -26.671875 C 29.085938 -25.503906 28.9375 -24.421875 28.5625 -23.421875 C 28.195312 -22.421875 27.785156 -21.617188 27.328125 -21.015625 C 26.785156 -20.148438 26.164062 -19.398438 25.46875 -18.765625 C 24.769531 -18.128906 24.117188 -17.613281 23.515625 -17.21875 L 23.3125 -17.015625 C 23.113281 -16.878906 22.863281 -16.691406 22.5625 -16.453125 C 22.269531 -16.222656 21.988281 -16.109375 21.71875 -16.109375 C 21.445312 -16.179688 21.242188 -16.28125 21.109375 -16.40625 C 20.910156 -16.738281 20.992188 -17.269531 21.359375 -18 C 21.734375 -18.738281 22.203125 -19.492188 22.765625 -20.265625 C 23.335938 -21.035156 23.820312 -21.6875 24.21875 -22.21875 C 25.019531 -23.15625 25.453125 -23.722656 25.515625 -23.921875 C 25.515625 -24.117188 25.582031 -24.351562 25.71875 -24.625 C 25.914062 -25.082031 26.046875 -25.613281 26.109375 -26.21875 C 26.179688 -26.820312 25.882812 -27.421875 25.21875 -28.015625 C 24.550781 -28.554688 23.851562 -28.828125 23.125 -28.828125 C 22.457031 -28.828125 21.6875 -28.59375 20.8125 -28.125 C 11.269531 -23.050781 4.265625 -15.578125 -0.203125 -5.703125 C -1.265625 -3.304688 -0.929688 -1.375 0.796875 0.09375 C 2.066406 1.226562 3.703125 1.796875 5.703125 1.796875 C 6.234375 1.796875 6.769531 1.765625 7.3125 1.703125 C 10.976562 1.296875 14.3125 0.410156 17.3125 -0.953125 C 20.3125 -2.316406 22.914062 -3.664062 25.125 -5 C 27.320312 -6.269531 29.789062 -7.90625 32.53125 -9.90625 C 32.925781 -10.175781 33.304688 -10.457031 33.671875 -10.75 C 34.046875 -11.050781 34.398438 -11.335938 34.734375 -11.609375 C 35.398438 -12.210938 36.097656 -12.78125 36.828125 -13.3125 C 37.554688 -13.84375 38.320312 -14.3125 39.125 -14.71875 C 39.457031 -14.914062 39.757812 -15.015625 40.03125 -15.015625 C 40.164062 -15.015625 40.265625 -14.976562 40.328125 -14.90625 Z M 40.328125 -14.90625 "/></g></g></g><g fill="#0a0c06" fill-opacity="1"><g transform="translate(224.106355, 213.321769)"><g><path d="M 57.75 -49.140625 C 57.945312 -48.941406 58.078125 -48.640625 58.140625 -48.234375 C 58.140625 -48.035156 58.085938 -47.851562 57.984375 -47.6875 C 57.890625 -47.519531 57.609375 -47.4375 57.140625 -47.4375 C 56.941406 -47.4375 56.722656 -47.453125 56.484375 -47.484375 C 56.253906 -47.515625 56.039062 -47.53125 55.84375 -47.53125 L 55.34375 -47.640625 C 51.675781 -48.109375 48.054688 -48.40625 44.484375 -48.53125 C 40.910156 -48.664062 37.457031 -48.734375 34.125 -48.734375 L 29.015625 -48.640625 C 28.148438 -48.640625 27.265625 -48.65625 26.359375 -48.6875 C 25.460938 -48.71875 24.582031 -48.734375 23.71875 -48.734375 C 22.65625 -48.734375 21.753906 -48.597656 21.015625 -48.328125 C 20.285156 -48.066406 19.71875 -47.503906 19.3125 -46.640625 L 17.515625 -43.234375 C 13.179688 -34.828125 8.941406 -26.1875 4.796875 -17.3125 C 0.660156 -8.4375 -2.640625 0.867188 -5.109375 10.609375 C -7.035156 18.210938 -7.9375 25.1875 -7.8125 31.53125 C -7.8125 31.789062 -7.8125 32.054688 -7.8125 32.328125 C -7.8125 32.921875 -7.789062 33.484375 -7.75 34.015625 C -7.71875 34.554688 -7.503906 35.0625 -7.109375 35.53125 C -6.503906 36.125 -5.601562 36.488281 -4.40625 36.625 C -4.132812 36.625 -3.929688 36.722656 -3.796875 36.921875 C -3.535156 37.191406 -3.367188 37.523438 -3.296875 37.921875 C -3.234375 38.390625 -3.332031 38.707031 -3.59375 38.875 C -3.863281 39.039062 -4.132812 39.125 -4.40625 39.125 L -4.5 39.125 C -7.4375 39.125 -9.304688 37.722656 -10.109375 34.921875 C -10.578125 33.453125 -10.789062 32.035156 -10.75 30.671875 C -10.71875 29.304688 -10.640625 27.957031 -10.515625 26.625 L -10.40625 25.8125 C -9.875 19.8125 -8.875 14.007812 -7.40625 8.40625 C -5.9375 2.800781 -4.179688 -2.632812 -2.140625 -7.90625 C -0.109375 -13.175781 1.9375 -18.378906 4 -23.515625 L 4.609375 -24.8125 C 5.609375 -27.351562 6.707031 -29.835938 7.90625 -32.265625 C 9.101562 -34.703125 10.269531 -37.125 11.40625 -39.53125 C 12.007812 -40.664062 12.59375 -41.800781 13.15625 -42.9375 C 13.726562 -44.070312 14.28125 -45.207031 14.8125 -46.34375 C 14.945312 -46.675781 15.03125 -47.054688 15.0625 -47.484375 C 15.09375 -47.921875 14.84375 -48.601562 14.3125 -49.53125 L 14.109375 -49.734375 L 13.90625 -49.734375 C 12.4375 -49.734375 10.9375 -49.734375 9.40625 -49.734375 C 7.875 -49.734375 6.335938 -49.734375 4.796875 -49.734375 C 3.265625 -49.804688 1.710938 -49.84375 0.140625 -49.84375 C -1.421875 -49.84375 -3.003906 -49.84375 -4.609375 -49.84375 C -9.546875 -49.84375 -13.914062 -49.773438 -17.71875 -49.640625 C -18.519531 -49.566406 -19.316406 -49.53125 -20.109375 -49.53125 C -20.910156 -49.53125 -21.710938 -49.53125 -22.515625 -49.53125 C -24.585938 -49.46875 -26.671875 -49.382812 -28.765625 -49.28125 C -30.867188 -49.1875 -32.890625 -48.90625 -34.828125 -48.4375 C -35.429688 -48.300781 -35.929688 -48.234375 -36.328125 -48.234375 C -36.796875 -48.234375 -37.195312 -48.332031 -37.53125 -48.53125 C -37.726562 -48.738281 -37.894531 -49.070312 -38.03125 -49.53125 C -38.164062 -50.132812 -37.863281 -50.4375 -37.125 -50.4375 C -36.988281 -50.4375 -36.722656 -50.421875 -36.328125 -50.390625 C -35.929688 -50.359375 -35.734375 -50.34375 -35.734375 -50.34375 L -35.421875 -50.34375 C -31.691406 -50.675781 -28.007812 -50.890625 -24.375 -50.984375 C -20.738281 -51.085938 -17.484375 -51.140625 -14.609375 -51.140625 C -13.078125 -51.140625 -11.523438 -51.140625 -9.953125 -51.140625 C -8.390625 -51.140625 -6.835938 -51.140625 -5.296875 -51.140625 C -3.765625 -51.078125 -2.210938 -51.046875 -0.640625 -51.046875 C 0.921875 -51.046875 2.46875 -51.046875 4 -51.046875 C 5.46875 -51.046875 6.9375 -51.046875 8.40625 -51.046875 C 9.875 -51.046875 11.34375 -51.078125 12.8125 -51.140625 C 14.207031 -51.203125 15.457031 -51.453125 16.5625 -51.890625 C 17.664062 -52.328125 18.550781 -53.210938 19.21875 -54.546875 C 22.019531 -60.410156 25.890625 -66.015625 30.828125 -71.359375 C 30.890625 -71.492188 31.019531 -71.660156 31.21875 -71.859375 C 31.425781 -72.117188 31.644531 -72.382812 31.875 -72.65625 C 32.101562 -72.925781 32.382812 -73.0625 32.71875 -73.0625 C 33.050781 -73.0625 33.453125 -72.859375 33.921875 -72.453125 C 34.523438 -71.921875 34.757812 -71.382812 34.625 -70.84375 C 34.488281 -70.3125 34.222656 -69.75 33.828125 -69.15625 C 33.296875 -68.414062 32.796875 -67.710938 32.328125 -67.046875 C 31.859375 -66.378906 31.390625 -65.75 30.921875 -65.15625 C 29.453125 -63.15625 27.984375 -61.066406 26.515625 -58.890625 C 25.046875 -56.722656 23.679688 -54.335938 22.421875 -51.734375 L 22.125 -51.234375 L 31.03125 -51.234375 C 38.09375 -51.234375 46.097656 -50.703125 55.046875 -49.640625 C 55.179688 -49.640625 55.414062 -49.640625 55.75 -49.640625 C 56.082031 -49.640625 56.429688 -49.601562 56.796875 -49.53125 C 57.160156 -49.46875 57.476562 -49.335938 57.75 -49.140625 Z M 57.75 -49.140625 "/></g></g></g><g fill="#0a0c06" fill-opacity="1"><g transform="translate(241.31941, 213.321769)"><g><path d="M 34.828125 -15.90625 C 35.023438 -15.78125 35.125 -15.484375 35.125 -15.015625 C 35.125 -14.546875 34.835938 -14.109375 34.265625 -13.703125 C 33.703125 -13.304688 33.253906 -12.972656 32.921875 -12.703125 C 31.785156 -11.703125 30.617188 -10.734375 29.421875 -9.796875 C 28.222656 -8.867188 27.019531 -7.972656 25.8125 -7.109375 C 23.28125 -5.304688 20.597656 -3.703125 17.765625 -2.296875 C 14.929688 -0.898438 11.910156 0.226562 8.703125 1.09375 C 7.367188 1.425781 5.96875 1.59375 4.5 1.59375 C 3.03125 1.59375 1.5625 0.925781 0.09375 -0.40625 C -1.375 -1.664062 -2.191406 -3.015625 -2.359375 -4.453125 C -2.523438 -5.890625 -2.40625 -7.273438 -2 -8.609375 C -0.800781 -13.140625 0.894531 -17.375 3.09375 -21.3125 C 5.300781 -25.25 7.941406 -28.882812 11.015625 -32.21875 C 11.347656 -32.6875 11.765625 -33.117188 12.265625 -33.515625 C 12.765625 -33.921875 13.445312 -33.789062 14.3125 -33.125 C 15.25 -32.394531 15.550781 -31.742188 15.21875 -31.171875 C 14.882812 -30.609375 14.582031 -30.09375 14.3125 -29.625 C 12.175781 -26.21875 10.109375 -22.8125 8.109375 -19.40625 C 6.109375 -16.007812 4.335938 -12.441406 2.796875 -8.703125 C 2.535156 -8.035156 2.203125 -7.332031 1.796875 -6.59375 C 1.398438 -5.863281 1.203125 -5.113281 1.203125 -4.34375 C 1.203125 -3.582031 1.566406 -2.835938 2.296875 -2.109375 C 3.503906 -0.835938 4.835938 -0.300781 6.296875 -0.5 C 7.765625 -0.695312 9.101562 -0.929688 10.3125 -1.203125 C 12.914062 -1.804688 15.316406 -2.707031 17.515625 -3.90625 C 19.710938 -5.101562 21.8125 -6.4375 23.8125 -7.90625 C 24.082031 -8.101562 24.75 -8.671875 25.8125 -9.609375 C 26.882812 -10.546875 28.050781 -11.546875 29.3125 -12.609375 C 30.582031 -13.679688 31.75 -14.550781 32.8125 -15.21875 C 33.882812 -15.882812 34.554688 -16.113281 34.828125 -15.90625 Z M 18.71875 -37.828125 C 17.175781 -37.691406 16.207031 -38.394531 15.8125 -39.9375 C 15.476562 -41.269531 15.609375 -42.21875 16.203125 -42.78125 C 16.804688 -43.351562 17.675781 -43.671875 18.8125 -43.734375 C 19.613281 -43.796875 20.3125 -43.628906 20.90625 -43.234375 C 21.507812 -42.835938 21.945312 -42.132812 22.21875 -41.125 C 22.28125 -40 21.976562 -39.203125 21.3125 -38.734375 C 20.644531 -38.265625 19.78125 -37.960938 18.71875 -37.828125 Z M 18.71875 -37.828125 "/></g></g></g><g fill="#0a0c06" fill-opacity="1"><g transform="translate(274.344469, 213.321769)"><g><path d="M 31.828125 -16.71875 C 32.421875 -16.71875 32.851562 -16.445312 33.125 -15.90625 C 33.257812 -15.707031 33.289062 -15.539062 33.21875 -15.40625 C 33.15625 -15.28125 32.988281 -15.164062 32.71875 -15.0625 C 32.457031 -14.957031 32.191406 -14.875 31.921875 -14.8125 C 31.585938 -14.75 31.351562 -14.71875 31.21875 -14.71875 C 25.882812 -13.175781 20.53125 -11.171875 15.15625 -8.703125 C 9.789062 -6.234375 4.140625 -3.164062 -1.796875 0.5 C -3.671875 1.632812 -4.988281 3.101562 -5.75 4.90625 C -6.519531 6.707031 -7.171875 8.539062 -7.703125 10.40625 C -7.972656 11.269531 -8.238281 12.132812 -8.5 13 C -8.769531 13.875 -9.101562 14.710938 -9.5 15.515625 C -9.570312 15.648438 -9.554688 15.863281 -9.453125 16.15625 C -9.359375 16.457031 -9.242188 16.742188 -9.109375 17.015625 L -9 17.3125 C -7.207031 21.3125 -6.34375 25.394531 -6.40625 29.5625 C -6.46875 33.738281 -7.347656 37.546875 -9.046875 40.984375 C -10.753906 44.421875 -13.175781 47.039062 -16.3125 48.84375 C -16.644531 49.039062 -17.023438 49.238281 -17.453125 49.4375 C -17.890625 49.632812 -18.34375 49.734375 -18.8125 49.734375 C -19.476562 49.734375 -20.179688 49.4375 -20.921875 48.84375 C -21.847656 48.101562 -22.28125 47.347656 -22.21875 46.578125 C -22.15625 45.816406 -22.019531 45.101562 -21.8125 44.4375 C -20.8125 41.4375 -19.828125 38.46875 -18.859375 35.53125 C -17.890625 32.59375 -16.90625 29.691406 -15.90625 26.828125 L -13.515625 19.609375 C -12.847656 17.679688 -12.910156 16.179688 -13.703125 15.109375 C -14.503906 14.046875 -16.078125 13.347656 -18.421875 13.015625 C -18.617188 13.015625 -18.914062 13.015625 -19.3125 13.015625 C -19.84375 12.941406 -20.289062 12.851562 -20.65625 12.75 C -21.03125 12.65625 -21.316406 12.34375 -21.515625 11.8125 C -21.648438 11.40625 -21.632812 11.101562 -21.46875 10.90625 C -21.300781 10.707031 -21.015625 10.472656 -20.609375 10.203125 C -20.347656 10.003906 -20.179688 9.875 -20.109375 9.8125 C -19.847656 9.539062 -19.648438 9.40625 -19.515625 9.40625 C -15.847656 7.875 -12.796875 5.820312 -10.359375 3.25 C -7.921875 0.6875 -5.882812 -2.144531 -4.25 -5.25 C -2.613281 -8.351562 -1.164062 -11.507812 0.09375 -14.71875 C 6.5 -30.789062 14.007812 -45.03125 22.625 -57.4375 C 23.21875 -58.375 23.929688 -59.289062 24.765625 -60.1875 C 25.597656 -61.09375 26.582031 -61.847656 27.71875 -62.453125 C 28.457031 -62.847656 29.160156 -63.046875 29.828125 -63.046875 C 31.359375 -63.046875 32.554688 -62.015625 33.421875 -59.953125 C 34.023438 -58.484375 34.289062 -56.546875 34.21875 -54.140625 C 34.15625 -51.742188 33.804688 -49.3125 33.171875 -46.84375 C 32.535156 -44.375 31.703125 -42.15625 30.671875 -40.1875 C 29.640625 -38.21875 28.554688 -36.898438 27.421875 -36.234375 C 26.953125 -35.960938 26.585938 -35.828125 26.328125 -35.828125 C 26.117188 -35.828125 25.945312 -35.894531 25.8125 -36.03125 C 25.21875 -36.425781 24.921875 -36.859375 24.921875 -37.328125 C 24.921875 -37.796875 24.953125 -38.128906 25.015625 -38.328125 C 25.546875 -39.734375 26.078125 -41.132812 26.609375 -42.53125 C 27.148438 -43.9375 27.722656 -45.304688 28.328125 -46.640625 L 28.515625 -47.234375 C 29.179688 -48.703125 29.796875 -50.21875 30.359375 -51.78125 C 30.929688 -53.351562 31.285156 -55.039062 31.421875 -56.84375 C 31.421875 -56.976562 31.457031 -57.210938 31.53125 -57.546875 C 31.59375 -58.015625 31.609375 -58.53125 31.578125 -59.09375 C 31.546875 -59.664062 31.226562 -60.179688 30.625 -60.640625 C 30.15625 -60.910156 29.753906 -61.046875 29.421875 -61.046875 C 29.023438 -61.046875 28.707031 -60.945312 28.46875 -60.75 C 28.238281 -60.550781 27.988281 -60.316406 27.71875 -60.046875 C 27.519531 -59.773438 27.390625 -59.609375 27.328125 -59.546875 C 25.316406 -57.742188 23.59375 -55.722656 22.15625 -53.484375 C 20.726562 -51.253906 19.347656 -48.972656 18.015625 -46.640625 L 17.71875 -46.140625 C 10.445312 -33.328125 3.609375 -18.78125 -2.796875 -2.5 L -3.109375 -1.703125 L -2.296875 -2.109375 C -1.160156 -2.640625 -0.046875 -3.1875 1.046875 -3.75 C 2.148438 -4.320312 3.234375 -4.875 4.296875 -5.40625 C 6.640625 -6.539062 8.941406 -7.675781 11.203125 -8.8125 C 13.472656 -9.945312 15.742188 -11.046875 18.015625 -12.109375 C 19.546875 -12.773438 21.113281 -13.375 22.71875 -13.90625 C 24.320312 -14.445312 25.921875 -14.984375 27.515625 -15.515625 L 30.21875 -16.40625 C 30.425781 -16.476562 30.675781 -16.546875 30.96875 -16.609375 C 31.269531 -16.679688 31.554688 -16.71875 31.828125 -16.71875 Z M -17.015625 40.9375 C -14.273438 38.332031 -12.351562 35.242188 -11.25 31.671875 C -10.15625 28.109375 -9.972656 24.421875 -10.703125 20.609375 L -11.3125 20.515625 L -11.8125 21.71875 C -12.945312 24.789062 -14.015625 27.828125 -15.015625 30.828125 C -16.015625 33.828125 -16.878906 37.0625 -17.609375 40.53125 Z M -9 5.796875 L -8.8125 4.90625 L -16.90625 10.703125 L -16.515625 10.90625 C -15.441406 11.570312 -14.570312 12.085938 -13.90625 12.453125 C -13.238281 12.828125 -12.671875 13.015625 -12.203125 13.015625 C -11.410156 13.015625 -10.828125 12.460938 -10.453125 11.359375 C -10.085938 10.253906 -9.601562 8.398438 -9 5.796875 Z M -9 5.796875 "/></g></g></g><g fill="#0a0c06" fill-opacity="1"><g transform="translate(305.167845, 213.321769)"><g><path d="M 53.046875 -16.8125 C 53.171875 -16.675781 53.117188 -16.425781 52.890625 -16.0625 C 52.660156 -15.695312 52.441406 -15.414062 52.234375 -15.21875 C 51.566406 -14.675781 50.816406 -14.1875 49.984375 -13.75 C 49.148438 -13.320312 48.300781 -12.910156 47.4375 -12.515625 C 47.039062 -12.304688 46.640625 -12.085938 46.234375 -11.859375 C 45.835938 -11.628906 45.472656 -11.410156 45.140625 -11.203125 C 43.804688 -10.472656 42.488281 -9.738281 41.1875 -9 C 39.882812 -8.269531 38.597656 -7.503906 37.328125 -6.703125 C 31.785156 -3.296875 26.945312 0.101562 22.8125 3.5 C 21.34375 4.769531 20.210938 6.238281 19.421875 7.90625 L 17.015625 13.015625 C 14.878906 17.410156 12.707031 21.875 10.5 26.40625 C 8.300781 30.945312 5.898438 35.351562 3.296875 39.625 C 2.234375 41.300781 0.953125 43.15625 -0.546875 45.1875 C -2.046875 47.21875 -3.863281 49.101562 -6 50.84375 C -6.46875 51.175781 -6.984375 51.523438 -7.546875 51.890625 C -8.117188 52.253906 -8.769531 52.503906 -9.5 52.640625 C -10.101562 52.835938 -10.609375 52.9375 -11.015625 52.9375 C -12.015625 52.9375 -12.878906 52.570312 -13.609375 51.84375 C -14.210938 51.3125 -14.546875 50.757812 -14.609375 50.1875 C -14.679688 49.625 -14.679688 48.972656 -14.609375 48.234375 C -14.410156 46.703125 -14.023438 45.285156 -13.453125 43.984375 C -12.890625 42.679688 -12.304688 41.429688 -11.703125 40.234375 C -6.566406 30.492188 0.898438 21.050781 10.703125 11.90625 C 13.835938 8.96875 16.273438 5.632812 18.015625 1.90625 C 19.148438 -0.425781 20.316406 -2.757812 21.515625 -5.09375 C 22.710938 -7.4375 23.914062 -9.773438 25.125 -12.109375 L 28.421875 -18.71875 L 27.515625 -18.421875 C 25.316406 -17.546875 23.332031 -16.457031 21.5625 -15.15625 C 19.800781 -13.851562 18.117188 -12.503906 16.515625 -11.109375 C 15.847656 -10.503906 15.160156 -9.914062 14.453125 -9.34375 C 13.753906 -8.78125 13.039062 -8.234375 12.3125 -7.703125 L 10.703125 -6.5 C 9.367188 -5.4375 7.96875 -4.421875 6.5 -3.453125 C 5.03125 -2.484375 3.429688 -1.695312 1.703125 -1.09375 C 0.960938 -0.894531 0.296875 -0.796875 -0.296875 -0.796875 C -1.296875 -0.796875 -2.265625 -1.164062 -3.203125 -1.90625 C -4.734375 -3.039062 -5.398438 -4.609375 -5.203125 -6.609375 C -4.804688 -9.671875 -3.769531 -12.269531 -2.09375 -14.40625 C -0.425781 -16.539062 1.40625 -18.476562 3.40625 -20.21875 C 3.738281 -20.550781 4.140625 -20.71875 4.609375 -20.71875 C 5.066406 -20.71875 5.53125 -20.515625 6 -20.109375 C 6.46875 -19.648438 6.6875 -19.234375 6.65625 -18.859375 C 6.625 -18.492188 6.441406 -18.078125 6.109375 -17.609375 C 5.773438 -17.140625 5.457031 -16.671875 5.15625 -16.203125 C 4.851562 -15.742188 4.535156 -15.28125 4.203125 -14.8125 C 3.734375 -14.144531 3.265625 -13.492188 2.796875 -12.859375 C 2.335938 -12.222656 1.90625 -11.570312 1.5 -10.90625 C 1.363281 -10.707031 1.210938 -10.488281 1.046875 -10.25 C 0.878906 -10.019531 0.695312 -9.804688 0.5 -9.609375 C 0.101562 -9.078125 -0.289062 -8.507812 -0.6875 -7.90625 C -1.09375 -7.300781 -1.363281 -6.632812 -1.5 -5.90625 C -1.695312 -5.039062 -1.597656 -4.375 -1.203125 -3.90625 C -0.734375 -3.4375 -0.03125 -3.203125 0.90625 -3.203125 C 1.363281 -3.203125 1.859375 -3.25 2.390625 -3.34375 C 2.929688 -3.445312 3.367188 -3.566406 3.703125 -3.703125 C 4.503906 -4.035156 5.238281 -4.414062 5.90625 -4.84375 C 6.570312 -5.28125 7.238281 -5.734375 7.90625 -6.203125 C 9.4375 -7.335938 10.96875 -8.488281 12.5 -9.65625 C 14.039062 -10.820312 15.546875 -11.972656 17.015625 -13.109375 C 18.210938 -14.046875 19.425781 -14.992188 20.65625 -15.953125 C 21.894531 -16.921875 23.113281 -17.84375 24.3125 -18.71875 C 24.519531 -18.851562 24.753906 -19.050781 25.015625 -19.3125 C 25.421875 -19.644531 25.835938 -19.960938 26.265625 -20.265625 C 26.703125 -20.566406 27.1875 -20.71875 27.71875 -20.71875 C 28.25 -20.71875 28.847656 -20.453125 29.515625 -19.921875 C 30.253906 -19.253906 30.554688 -18.550781 30.421875 -17.8125 C 30.285156 -17.082031 30.050781 -16.347656 29.71875 -15.609375 C 29.519531 -15.210938 29.390625 -14.914062 29.328125 -14.71875 C 29.054688 -13.914062 28.785156 -13.128906 28.515625 -12.359375 C 28.253906 -11.585938 27.957031 -10.835938 27.625 -10.109375 C 27.15625 -8.835938 26.6875 -7.550781 26.21875 -6.25 C 25.75 -4.945312 25.316406 -3.597656 24.921875 -2.203125 L 25.515625 -1.90625 C 25.585938 -2.164062 25.875 -2.429688 26.375 -2.703125 C 26.875 -2.972656 27.320312 -3.171875 27.71875 -3.296875 C 28.1875 -3.566406 28.488281 -3.734375 28.625 -3.796875 L 32.03125 -5.90625 C 35.363281 -8.039062 38.765625 -10.007812 42.234375 -11.8125 C 44.035156 -12.738281 45.800781 -13.601562 47.53125 -14.40625 C 47.738281 -14.539062 47.972656 -14.675781 48.234375 -14.8125 C 48.503906 -14.945312 48.738281 -15.082031 48.9375 -15.21875 C 49.601562 -15.476562 50.234375 -15.757812 50.828125 -16.0625 C 51.429688 -16.363281 52.066406 -16.613281 52.734375 -16.8125 C 52.867188 -16.8125 52.972656 -16.8125 53.046875 -16.8125 Z M -8.40625 48.734375 C -4 44.203125 -0.363281 39.097656 2.5 33.421875 C 5.375 27.753906 8.078125 22.050781 10.609375 16.3125 L 10.109375 15.71875 C 3.703125 21.113281 -1.867188 27.113281 -6.609375 33.71875 C -7.804688 35.457031 -8.972656 37.273438 -10.109375 39.171875 C -11.242188 41.078125 -12.109375 43.195312 -12.703125 45.53125 C -12.773438 45.726562 -12.84375 46 -12.90625 46.34375 C -13.101562 46.9375 -13.234375 47.566406 -13.296875 48.234375 C -13.367188 48.898438 -13.039062 49.535156 -12.3125 50.140625 C -11.84375 50.472656 -11.375 50.640625 -10.90625 50.640625 C -10.4375 50.640625 -10.035156 50.488281 -9.703125 50.1875 C -9.367188 49.882812 -9.070312 49.566406 -8.8125 49.234375 C -8.601562 48.972656 -8.46875 48.804688 -8.40625 48.734375 Z M -8.40625 48.734375 "/></g></g></g></svg>