<svg xmlns="http://www.w3.org/2000/svg" xmlns:xlink="http://www.w3.org/1999/xlink" width="500" zoomAndPan="magnify" viewBox="0 0 375 374.999991" height="500" preserveAspectRatio="xMidYMid meet" version="1.0"><defs><clipPath id="463616b7ed"><path d="M 23.453125 10.628906 L 351.203125 10.628906 L 351.203125 364.628906 L 23.453125 364.628906 Z M 23.453125 10.628906 " clip-rule="nonzero"/></clipPath></defs><g clip-path="url(#463616b7ed)"><path fill="#efecec" d="M 260.457031 364.371094 L 351.421875 364.371094 L 265 238.035156 C 280.074219 232.476562 293.300781 224.8125 304.675781 214.871094 C 315.960938 205.015625 324.804688 192.890625 331.121094 178.484375 C 337.519531 164.085938 340.71875 147.40625 340.804688 128.371094 L 340.804688 127.363281 C 340.804688 110.601562 338.191406 95.441406 333.050781 81.796875 C 327.921875 68.15625 320.335938 56.445312 310.488281 46.507812 C 298.863281 34.800781 284.386719 25.917969 267.109375 19.808594 C 249.859375 13.707031 229.875 10.628906 207.394531 10.628906 L 23.578125 10.628906 L 70.605469 80.871094 L 200.828125 80.871094 C 213.542969 80.871094 224.410156 82.8125 233.507812 86.597656 C 242.601562 90.390625 249.671875 95.945312 254.5625 103.445312 C 259.449219 110.941406 261.882812 120.289062 261.96875 131.410156 L 261.96875 132.414062 C 261.96875 142.441406 259.617188 151.199219 254.898438 158.609375 C 250.257812 166.105469 243.523438 171.917969 234.679688 176.132812 C 225.753906 180.257812 214.96875 182.363281 202.339844 182.445312 L 138.628906 182.445312 Z M 260.457031 364.371094 " fill-opacity="1" fill-rule="nonzero"/></g></svg>